HIERARCHY
ROOT Hips
{
	OFFSET 0.000000 0.000000 0.000000 
	CHANNELS 6 Xposition Yposition Zposition Zrotation Yrotation Xrotation
	JOINT LeftUpLeg
	{
		OFFSET 1.363060 -1.794630 0.839290 
		CHANNELS 3 Zrotation Yrotation Xrotation
		JOINT LeftLeg
		{
			OFFSET 2.448110 -6.726130 0.000000 
			CHANNELS 3 Zrotation Yrotation Xrotation
			JOINT LeftFoot
			{
				OFFSET 2.562200 -7.039590 0.000000 
				CHANNELS 3 Zrotation Yrotation Xrotation
				JOINT LeftToeBase
				{
					OFFSET 0.157640 -0.433110 2.322550 
					CHANNELS 3 Zrotation Yrotation Xrotation
					End Site
					{
						OFFSET 0.000000 0.000000 0.000000 
					}
				}
			}
		}
	}
	JOINT RightUpLeg
	{
		OFFSET -1.305520 -1.794630 0.839290 
		CHANNELS 3 Zrotation Yrotation Xrotation
		JOINT RightLeg
		{
			OFFSET -2.542530 -6.985550 0.000000 
			CHANNELS 3 Zrotation Yrotation Xrotation
			JOINT RightFoot
			{
				OFFSET -2.568260 -7.056230 0.000000 
				CHANNELS 3 Zrotation Yrotation Xrotation
				JOINT RightToeBase
				{
					OFFSET -0.164730 -0.452590 2.363150 
					CHANNELS 3 Zrotation Yrotation Xrotation
					End Site
					{
						OFFSET 0.000000 0.000000 0.000000 
					}
				}
			}
		}
	}
	JOINT Spine
	{
		OFFSET 0.028270 2.035590 -0.193380 
		CHANNELS 3 Zrotation Yrotation Xrotation
		JOINT Spine1
		{
			OFFSET 0.056720 2.048850 -0.042750 
			CHANNELS 3 Zrotation Yrotation Xrotation
			JOINT Neck1
			{
				OFFSET -0.054170 1.746240 0.172020 
				CHANNELS 3 Zrotation Yrotation Xrotation
				JOINT Head
				{
					OFFSET 0.104070 1.761360 -0.123970 
					CHANNELS 3 Zrotation Yrotation Xrotation
					End Site
					{
						OFFSET 0.000000 0.000000 0.000000 
					}
				}
			}
			JOINT LeftArm
			{
				OFFSET 3.362410 1.200890 -0.311210 
				CHANNELS 3 Zrotation Yrotation Xrotation
				JOINT LeftForeArm
				{
					OFFSET 4.983000 -0.000000 -0.000000 
					CHANNELS 3 Zrotation Yrotation Xrotation
					JOINT LeftHand
					{
						OFFSET 3.483560 -0.000000 -0.000000 
						CHANNELS 3 Zrotation Yrotation Xrotation
						JOINT LeftHandIndex1
						{
							OFFSET 0.715260 -0.000000 -0.000000 
							CHANNELS 3 Zrotation Yrotation Xrotation
							End Site
							{
								OFFSET 0.000000 0.000000 0.000000 
							}
						}
					}
				}
			}
			JOINT RightArm
			{
				OFFSET -3.136600 1.374050 -0.404650 
				CHANNELS 3 Zrotation Yrotation Xrotation
				JOINT RightForeArm
				{
					OFFSET -5.241900 -0.000000 -0.000000 
					CHANNELS 3 Zrotation Yrotation Xrotation
					JOINT RightHand
					{
						OFFSET -3.444170 -0.000000 -0.000000 
						CHANNELS 3 Zrotation Yrotation Xrotation
						JOINT RightHandIndex1
						{
							OFFSET -0.622530 -0.000000 -0.000000 
							CHANNELS 3 Zrotation Yrotation Xrotation
							End Site
							{
								OFFSET 0.000000 0.000000 0.000000 
							}
						}
					}
				}
			}
		}
	}
}
MOTION
Frames: 7
Frame Time: 0.041667
-35.856032 17.312949 3.510695 -171.134470 32.997133 -173.142730 -1.526324 -40.167731 -18.148362 -8.666555 3.112151 -1.585500 5.054510 6.421428 35.807675 14.998900 -19.389500 -75.233500 57.574192 5.939289 16.988082 15.006624 -1.655744 6.449691 -1.377579 -0.999689 -20.039482 -0.964100 6.251900 -17.517000 6.715669 -5.921695 -6.172820 29.090313 3.099477 -22.558257 -1.377175 7.498048 27.181887 -1.020400 3.233200 22.889400 -121.585170 28.846624 -14.850515 21.786770 -39.363040 -7.967843 0.079311 3.657800 0.163222 -7.125000 0.000000 0.000000 48.146740 -13.364843 78.583605 -29.787183 38.462482 -8.727395 0.953710 -1.606801 -22.151099 7.125000 0.000000 0.000000 
-35.745392 17.273576 3.221006 -171.272427 34.940239 -172.751948 0.758826 -45.193428 -19.631174 -8.372995 3.771147 -1.793989 5.616389 7.966744 36.483145 14.821700 -19.344600 -74.699100 57.301520 5.968498 18.283749 14.973458 -1.442504 6.466265 -1.299258 0.182347 -19.829540 -0.759000 5.564000 -15.524500 6.637822 -5.672309 -6.126202 28.602129 3.074971 -22.169692 -1.178390 7.488273 27.019949 -0.904700 3.209000 22.677200 -121.360580 29.263724 -14.513461 21.800063 -39.386335 -8.011476 0.088146 3.645091 -0.522962 -7.125000 0.000000 0.000000 48.651458 -13.353592 78.122966 -29.719927 38.475407 -8.719161 0.959776 -1.614076 -22.041877 7.125000 0.000000 0.000000 
-35.629032 17.236622 2.928127 -170.626744 36.450216 -172.189590 0.930642 -44.538483 -19.931147 -8.352678 3.851099 -1.944870 5.093740 9.349887 34.813697 14.602000 -19.286500 -74.034700 57.654592 5.973113 19.374904 14.975892 -1.440178 6.789066 -1.239449 1.371883 -19.803848 -0.441800 4.264800 -11.822800 6.618559 -5.406311 -6.088110 28.068639 3.010566 -21.875581 -1.038603 7.328963 26.883052 -0.849700 3.137200 22.486600 -121.129784 29.425040 -14.757110 21.444341 -39.039138 -7.898993 0.134202 3.637035 -0.537265 -7.125000 0.000000 0.000000 49.122783 -13.294224 77.836094 -29.544449 38.387240 -8.652001 0.950018 -1.628210 -22.193606 7.125000 0.000000 0.000000 
-35.509153 17.203408 2.639978 -169.806907 37.849149 -171.545943 0.081172 -42.209440 -20.009246 -8.546851 4.037974 -1.477882 4.216949 10.093855 32.281760 14.673900 -19.305800 -74.252500 58.127160 6.103397 20.296505 14.967320 -1.571165 7.354281 -1.194550 2.401548 -19.817452 -0.264500 3.308300 -9.138200 6.607707 -5.128844 -6.069597 27.654624 3.001320 -21.736230 -0.824321 7.084599 26.767637 -0.738300 3.034300 22.274200 -120.768296 29.232179 -15.587064 20.485157 -38.075179 -7.534706 0.227214 3.641366 0.259408 -7.125000 0.000000 0.000000 49.519039 -13.524825 77.465284 -29.391852 38.295243 -8.583516 0.922653 -1.648458 -22.030197 7.125000 0.000000 0.000000 
-35.379926 17.169974 2.347869 -169.430567 39.321723 -171.059745 -0.621596 -41.357069 -19.882259 -8.792125 4.760970 0.185893 3.784753 11.199439 31.954246 15.158500 -19.428500 -75.713600 57.666109 5.593708 20.541561 14.706539 -2.079760 8.719540 -1.007397 4.325643 -19.294945 -0.223900 3.045500 -8.405600 6.585415 -4.845099 -6.061249 27.485465 3.091381 -21.626439 -0.572909 6.790467 26.678561 -0.588100 2.905500 22.078800 -120.423884 29.179348 -15.995553 19.642171 -37.233050 -7.213834 0.306091 3.637507 0.849801 -7.125000 0.000000 0.000000 49.822365 -14.094686 76.794629 -29.221085 38.162802 -8.495503 0.929439 -1.652303 -21.535166 7.125000 0.000000 0.000000 
-35.245199 17.138079 2.047402 -169.075520 40.601331 -170.727427 -2.426655 -39.474756 -19.751934 -9.157453 5.482695 2.046952 2.921727 10.152337 28.821206 15.251000 -19.450500 -75.991600 57.513261 5.548426 21.094073 14.497261 -2.555756 10.099007 -0.941384 5.458128 -19.103935 -0.173500 2.683300 -7.398200 6.570194 -4.546569 -6.036394 27.372179 3.185379 -21.533304 -0.243292 6.474834 26.592624 -0.406700 2.739600 21.580400 -120.147211 29.230196 -15.866566 19.039229 -36.665622 -6.996760 0.354965 3.644538 1.162298 -7.125000 0.000000 0.000000 49.926356 -14.689712 76.063420 -29.019167 37.999129 -8.397514 0.952864 -1.645517 -21.288660 7.125000 0.000000 0.000000 
-35.111133 17.109594 1.738576 -168.520692 41.757116 -170.333253 -3.508806 -39.072496 -19.145291 -9.295445 5.804959 3.224238 2.658716 7.155921 26.554933 14.220300 -19.179500 -72.876100 57.068310 4.889545 21.618074 14.247512 -2.959225 11.316663 -0.734063 6.757767 -18.275358 -0.105400 2.093100 -5.763100 6.550650 -4.304057 -6.024980 26.902718 3.167797 -21.527353 0.009444 6.307725 26.537521 -0.199000 2.621400 21.481700 -119.640819 29.333169 -15.487476 18.491230 -36.104077 -6.815333 0.395553 3.640416 1.359551 -7.125000 0.000000 0.000000 50.127006 -15.125430 75.491417 -28.696823 37.861058 -8.452211 0.844512 -1.720348 -21.560370 7.125000 0.000000 0.000000 
